<svg width="95" height="29" viewBox="0 0 95 29" fill="none" xmlns="http://www.w3.org/2000/svg">
<path d="M17.5694 6.18415H10.8712L11.6334 9.74577H15.9718C16.0598 9.74577 16.133 9.83371 16.0891 9.92165L15.6054 11.1382C15.5907 11.1821 15.5321 11.2261 15.4881 11.2261H7.11906C6.88455 11.2261 6.70867 10.9916 6.79661 10.7571L9.09774 4.89434C9.14172 4.76243 9.27363 4.67448 9.42019 4.67448H23.4175L24.8686 0.995605H6.8699C6.62073 0.995605 6.37156 1.06889 6.16637 1.21546L4.8619 2.09487C4.65671 2.24144 4.49548 2.43198 4.40754 2.66649L0.626063 12.3254C0.479494 12.7065 0.523465 13.1462 0.757975 13.4833L1.37356 14.3773C1.60807 14.7145 1.98915 14.9196 2.39955 14.9196H19.4162L22.8459 6.18415H17.5694Z" fill="white"/>
<path d="M42.5591 9.74576L44.0101 6.06688H30.0714L30.5258 4.90899C30.5698 4.77707 30.7017 4.68913 30.8483 4.68913H44.5524L46.0035 1.01025H28.5764C28.3273 1.01025 28.0781 1.08354 27.8729 1.23011L26.5684 2.10952C26.3633 2.25609 26.202 2.44663 26.1141 2.68114L22.3326 12.3254C22.186 12.7064 22.23 13.1462 22.4645 13.4833L23.0801 14.3773C23.3146 14.7144 23.6957 14.9196 24.1061 14.9196H40.5218L41.9728 11.2408H28.5325C28.298 11.2408 28.1221 11.0062 28.21 10.7717L28.6058 9.74576H42.5591Z" fill="white"/>
<path d="M63.8986 1.01025L59.9706 11.0209C59.9266 11.1528 59.7947 11.2408 59.6481 11.2408C59.4869 11.2408 59.355 11.1235 59.311 10.9769L57.2151 1.02491H49.6814C49.4322 1.02491 49.1831 1.0982 48.9779 1.24476L47.6734 2.12418C47.4682 2.27075 47.307 2.46129 47.2191 2.6958L43.4376 12.34C43.291 12.7211 43.335 13.1608 43.5695 13.4979L44.1851 14.392C44.4196 14.7291 44.8007 14.9343 45.2111 14.9343H53.3017L52.5395 11.3727H49.8866C49.6521 11.3727 49.4762 11.1382 49.5642 10.9037L51.9093 4.92364C51.9532 4.79173 52.0851 4.70379 52.2317 4.70379C52.3929 4.70379 52.5249 4.82104 52.5688 4.96761L54.6648 14.9196H64.0012L69.4682 1.01025H63.8986Z" fill="white"/>
<path d="M82.9974 13.5271L83.2319 14.1134C83.4225 14.5971 83.8768 14.9049 84.3898 14.9049H89.4611L86.1633 7.12207L83.0853 12.4425C82.8948 12.7796 82.8508 13.1754 82.9974 13.5271Z" fill="white"/>
<path d="M86.1488 1.01025L74.0862 11.1675C74.0275 11.2261 73.9542 11.2408 73.8663 11.2408H73.7197C73.4852 11.2408 73.3093 11.0062 73.3973 10.7717L77.2227 1.01025H71.5065L67.0802 12.3254C66.9336 12.7064 66.9776 13.1462 67.2121 13.4833L67.8277 14.3773C68.0622 14.7144 68.4433 14.9196 68.8536 14.9196H76.7391L86.1634 7.13683L93.4332 1.01025H86.1488Z" fill="white"/>
<path d="M1.27084 25.4624H1.87789V21.9109H3.01257V21.4116H0.136162V21.9109H1.27084V25.4624ZM4.26223 23.7604H4.98275L5.79405 25.4624H6.46351L5.57846 23.7036C6.13445 23.5788 6.37841 23.2328 6.37841 22.5633C6.37841 22.1718 6.28763 21.9052 6.08906 21.7066C5.87915 21.4967 5.59548 21.4116 5.09622 21.4116H3.65517V25.4624H4.26223V23.7604ZM4.25088 23.2781V21.8995H5.03948C5.55009 21.8995 5.77703 22.1094 5.77703 22.5917C5.77703 23.0626 5.56144 23.2781 5.07352 23.2781H4.25088ZM9.47746 24.6171L9.76112 25.4624H10.4192L8.94416 21.4116H8.3598L6.88471 25.4624H7.54283L7.8265 24.6171H9.47746ZM9.32995 24.1292H7.974L8.65481 22.1491L9.32995 24.1292ZM10.7789 25.4624H11.369V22.4328L13.1731 25.4624H13.7631V21.4116H13.1731V24.4412L11.369 21.4116H10.7789V25.4624ZM16.1562 23.7604H16.9164V24.0724C16.9164 24.7135 16.6384 25.0256 16.0654 25.0256C15.447 25.0256 15.2144 24.7022 15.2144 23.8285V23.0569C15.2144 22.1889 15.447 21.8598 16.0597 21.8598C16.5079 21.8598 16.7746 22.0754 16.8313 22.4895L17.393 22.4498C17.3532 21.7407 16.8823 21.3662 16.037 21.3662C15.5264 21.3662 15.1803 21.5024 14.925 21.7974C14.6924 22.064 14.6073 22.3931 14.6073 23.0172V23.8625C14.6073 24.4412 14.6754 24.7532 14.8683 25.0142C15.1179 25.3603 15.4924 25.5191 16.0767 25.5191C16.5987 25.5191 16.9674 25.3716 17.2228 25.0653C17.4383 24.8043 17.5178 24.5036 17.5178 23.9419V23.2895H16.1562V23.7604ZM20.0329 25.4624H20.64V21.9109H21.7747V21.4116H18.8983V21.9109H20.0329V25.4624ZM22.4116 25.4624H23.0187V23.6639H24.5732V25.4624H25.1802V21.4116H24.5732V23.1647H23.0187V21.4116H22.4116V25.4624ZM26.0295 23.9306C26.0295 24.4639 26.1089 24.7759 26.3075 25.0312C26.5628 25.366 26.9315 25.5191 27.4932 25.5191C28.0095 25.5191 28.3499 25.3943 28.6165 25.0993C28.8605 24.8383 28.9513 24.5093 28.9513 23.9306V22.9434C28.9513 22.4101 28.8718 22.0981 28.6733 21.8428C28.418 21.508 28.0492 21.3549 27.4932 21.3549C26.9712 21.3549 26.6308 21.4797 26.3642 21.7747C26.1202 22.0413 26.0295 22.3647 26.0295 22.9434V23.9306ZM28.3442 23.8739C28.3442 24.6851 28.0889 25.0256 27.4932 25.0256C26.8918 25.0256 26.6365 24.6851 26.6365 23.8739V23.0001C26.6365 22.1889 26.8918 21.8484 27.4932 21.8484C28.0889 21.8484 28.3442 22.1889 28.3442 23.0001V23.8739ZM27.4875 20.5436L27.8506 20.9974H28.4293L27.6861 20.1918H27.289L26.5514 20.9974H27.1301L27.4875 20.5436ZM29.8014 25.4624H30.3915V22.4328L32.1956 25.4624H32.7856V21.4116H32.1956V24.4412L30.3915 21.4116H29.8014V25.4624ZM35.1787 23.7604H35.9389V24.0724C35.9389 24.7135 35.6609 25.0256 35.0879 25.0256C34.4695 25.0256 34.2369 24.7022 34.2369 23.8285V23.0569C34.2369 22.1889 34.4695 21.8598 35.0822 21.8598C35.5304 21.8598 35.7971 22.0754 35.8538 22.4895L36.4155 22.4498C36.3757 21.7407 35.9048 21.3662 35.0595 21.3662C34.5489 21.3662 34.2028 21.5024 33.9475 21.7974C33.7149 22.064 33.6298 22.3931 33.6298 23.0172V23.8625C33.6298 24.4412 33.6979 24.7532 33.8908 25.0142C34.1404 25.3603 34.5149 25.5191 35.0992 25.5191C35.6212 25.5191 35.9899 25.3716 36.2453 25.0653C36.4608 24.8043 36.5403 24.5036 36.5403 23.9419V23.2895H35.1787V23.7604ZM39.0554 25.4624H39.6625V21.9109H40.7972V21.4116H37.9208V21.9109H39.0554V25.4624ZM41.4341 25.4624H42.0412V21.4116H41.4341V25.4624ZM42.9876 25.4624H43.5777V22.4328L45.3818 25.4624H45.9719V21.4116H45.3818V24.4412L43.5777 21.4116H42.9876V25.4624ZM47.912 23.1703H47.4581V23.6583H47.912V25.4624H49.2452C50.2664 25.4737 50.7714 24.9518 50.743 23.9079V22.9661C50.7714 21.9222 50.2664 21.3946 49.2452 21.4116H47.912V23.1703ZM48.519 23.1703V21.8995H49.1374C49.8466 21.8825 50.1303 22.2002 50.1359 23.0172V23.8512C50.1303 24.6738 49.8466 24.9915 49.1374 24.9745H48.519V23.6583H49.37V23.1703H48.519ZM51.5986 25.4624H52.2056V21.4116H51.5986V25.4624ZM53.1578 25.4624H55.603V24.9631H53.7592V23.6639H55.3137V23.1647H53.7592V21.9109H55.586V21.4116H53.1578V25.4624ZM54.3832 20.5436L54.7463 20.9974H55.3193L54.5818 20.1918H54.1847L53.4415 20.9974H54.0201L54.3832 20.5436ZM54.1166 26.5971H54.6783V25.9503H54.1166V26.5971ZM56.3013 25.4624H56.8913V22.4328L58.6955 25.4624H59.2855V21.4116H58.6955V24.4412L56.8913 21.4116H56.3013V25.4624ZM61.9518 25.4624H62.5589V21.9109H63.6936V21.4116H60.8171V21.9109H61.9518V25.4624ZM64.2137 21.4116V23.9646C64.2137 24.5036 64.2591 24.7532 64.4066 24.9802C64.6506 25.3489 65.0364 25.5191 65.6378 25.5191C66.1994 25.5191 66.5512 25.3773 66.8065 25.0482C66.9994 24.81 67.0561 24.549 67.0561 23.9646V22.6427C67.3511 22.4895 67.4532 22.4328 67.5667 22.3534C67.8844 22.1264 68.0206 21.8995 68.0206 21.5988C68.0206 21.508 68.0149 21.4513 67.9809 21.3492H67.4703C67.5327 21.4683 67.5554 21.5478 67.5554 21.6669C67.5554 21.9335 67.4249 22.0981 67.0561 22.2683V21.4116H66.449V23.9646C66.449 24.305 66.4207 24.4979 66.3526 24.6454C66.2221 24.9121 66.0065 25.0256 65.6378 25.0256C65.286 25.0256 65.0874 24.9291 64.9456 24.6965C64.8548 24.5376 64.8208 24.3561 64.8208 23.9646V21.4116H64.2137ZM65.9214 21.0655C65.9271 20.8896 65.9328 20.8613 66.0235 20.7478C66.1824 20.5549 66.2051 20.5152 66.2051 20.3847C66.2051 20.1124 66.0065 19.9535 65.6661 19.9535C65.4959 19.9535 65.3824 19.9762 65.1839 20.0443L65.2803 20.3677C65.4165 20.3053 65.4902 20.2883 65.5697 20.2883C65.6718 20.2883 65.7285 20.3337 65.7285 20.4074C65.7285 20.4528 65.7115 20.4982 65.6775 20.5492C65.5356 20.7421 65.5243 20.7762 65.5186 20.9918V21.0655H65.9214ZM70.0032 25.4624H70.6102V21.9109H71.7449V21.4116H68.8685V21.9109H70.0032V25.4624ZM72.1856 23.9306C72.1856 24.4639 72.2651 24.7759 72.4636 25.0312C72.7189 25.366 73.0877 25.5191 73.6494 25.5191C74.1657 25.5191 74.5061 25.3943 74.7727 25.0993C75.0167 24.8383 75.1074 24.5093 75.1074 23.9306V22.9434C75.1074 22.4101 75.028 22.0981 74.8295 21.8428C74.5741 21.508 74.2054 21.3549 73.6494 21.3549C73.1274 21.3549 72.787 21.4797 72.5204 21.7747C72.2764 22.0413 72.1856 22.3647 72.1856 22.9434V23.9306ZM74.5004 23.8739C74.5004 24.6851 74.2451 25.0256 73.6494 25.0256C73.048 25.0256 72.7927 24.6851 72.7927 23.8739V23.0001C72.7927 22.1889 73.048 21.8484 73.6494 21.8484C74.2451 21.8484 74.5004 22.1889 74.5004 23.0001V23.8739ZM73.8196 20.4471C73.8253 20.328 73.8253 20.311 73.899 20.2429C74.0238 20.1124 74.0465 20.0727 74.0465 19.9762C74.0465 19.772 73.8763 19.6472 73.5927 19.6472C73.4395 19.6472 73.3317 19.6699 73.1842 19.7209L73.2693 19.9819C73.3771 19.9308 73.4395 19.9138 73.5075 19.9138C73.5927 19.9138 73.638 19.9365 73.638 19.9819C73.638 20.0103 73.621 20.05 73.5983 20.0783C73.4735 20.2259 73.4678 20.2485 73.4622 20.4471H73.8196ZM73.638 20.8386L73.9898 21.1449H74.5401L73.8253 20.5379H73.4451L72.736 21.1449H73.2806L73.638 20.8386ZM75.9576 25.4624H76.5477V22.4328L78.3518 25.4624H78.9418V21.4116H78.3518V24.4412L76.5477 21.4116H75.9576V25.4624ZM81.3348 23.7604H82.0951V24.0724C82.0951 24.7135 81.8171 25.0256 81.2441 25.0256C80.6257 25.0256 80.3931 24.7022 80.3931 23.8285V23.0569C80.3931 22.1889 80.6257 21.8598 81.2384 21.8598C81.6866 21.8598 81.9532 22.0754 82.01 22.4895L82.5716 22.4498C82.5319 21.7407 82.061 21.3662 81.2157 21.3662C80.7051 21.3662 80.359 21.5024 80.1037 21.7974C79.8711 22.064 79.786 22.3931 79.786 23.0172V23.8625C79.786 24.4412 79.8541 24.7532 80.047 25.0142C80.2966 25.3603 80.6711 25.5191 81.2554 25.5191C81.7774 25.5191 82.1461 25.3716 82.4014 25.0653C82.617 24.8043 82.6965 24.5036 82.6965 23.9419V23.2895H81.3348V23.7604ZM84.4854 25.4624H85.0925V23.6639H86.647V25.4624H87.2541V21.4116H86.647V23.1647H85.0925V21.4116H84.4854V25.4624ZM91.184 21.3492C91.2464 21.4627 91.2691 21.5478 91.2691 21.6612C91.2691 21.8711 91.1783 22.0073 90.923 22.1775C90.7187 21.6215 90.2762 21.3549 89.5614 21.3549C89.0451 21.3549 88.7047 21.4854 88.438 21.7747C88.1941 22.0413 88.1033 22.3647 88.1033 22.9434V23.9306C88.1033 24.4639 88.1827 24.7759 88.3813 25.0312C88.6366 25.366 89.0054 25.5191 89.567 25.5191C90.0833 25.5191 90.4237 25.3943 90.6904 25.0993C90.9343 24.8383 91.0251 24.5093 91.0251 23.9306V22.9434C91.0251 22.7789 91.0194 22.6768 90.9911 22.5179C91.2123 22.3874 91.2917 22.342 91.3995 22.2513C91.6151 22.0754 91.7343 21.8371 91.7343 21.5875C91.7343 21.4967 91.7229 21.4456 91.6946 21.3492H91.184ZM90.418 23.8739C90.418 24.6851 90.1627 25.0256 89.567 25.0256C88.9657 25.0256 88.7103 24.6851 88.7103 23.8739V23.0001C88.7103 22.1945 88.9657 21.8541 89.567 21.8541C90.1627 21.8541 90.418 22.1945 90.418 23.0001V23.8739ZM89.221 26.5971H89.7826V25.9503H89.221V26.5971ZM92.6652 23.9419H93.3913C93.8793 23.9419 94.1686 23.8625 94.3842 23.6696C94.6281 23.4483 94.7359 23.1363 94.7359 22.6711C94.7359 22.2399 94.6452 21.9562 94.4353 21.735C94.214 21.5024 93.9246 21.4116 93.3913 21.4116H92.0581V25.4624H92.6652V23.9419ZM92.6538 23.4483V21.8995H93.3913C93.9076 21.8995 94.1346 22.1321 94.1346 22.6768C94.1346 23.2101 93.9076 23.4483 93.3913 23.4483H92.6538Z" fill="white" fill-opacity="0.8"/>
</svg>
